<svg xmlns="http://www.w3.org/2000/svg" viewBox="0 0 24 24">
  <!-- White background -->
  <rect width="24" height="24" fill="white"/>
  <!-- Black logo paths -->
  <g fill="black">
    <path fillRule="evenodd" d="M12.98 21.63l6.61-11.86-2.38-.002c-.412.697-.791 1.46-1.19 2.185-.337.612-.177.688-1.03.686l-8.37.004 1.171 2.086 5.22-.005c.87 0 1.526-.134 1.01.778l-3.378 6.124 2.337.002z"/>
    <path fillRule="evenodd" d="M1.855 14.866l2.382.005c.34-.636 1.103-2.132 1.446-2.702.152-.253.298-.211.655-.21 2.777 0 5.688.097 8.45-.004l-1.144-2.04c-1.83-.029-3.864-.002-5.714 0-.44 0-.914-.056-.622-.583l3.502-6.296-2.386.004-6.569 11.827z"/>
    <path fillRule="evenodd" d="M10.024 21.246l3.24-5.835-2.33.004-2.137 3.84 1.227 1.99z"/>
    <path fillRule="evenodd" d="M8.182 9.229l2.229-.002 2.243-3.85-1.247-1.98-2.438 4.378-.787 1.454z"/>
    <path fillRule="evenodd" d="M15.415 11.593c.418-.664.779-1.394 1.154-2.084l-1.102-2.123-1.196 2.093 1.144 2.116z"/>
    <path fillRule="evenodd" d="M5.975 17.256l1.174-2.12-1.12-2.11-1.152 2.107 1.098 2.123z"/>
    <path fillRule="evenodd" d="M17.207 9.086l2.412-.001-1.228-2.044-2.328-.01 1.144 2.055z"/>
    <path fillRule="evenodd" d="M3.078 17.609l2.301-.001-.57-1.041-.575-1.01-2.413.001 1.257 2.051z"/>
  </g>
</svg>